<svg xmlns:xlink="http://www.w3.org/1999/xlink" xmlns="http://www.w3.org/2000/svg" viewBox="0 0 250 250">
 <g transform="translate(0, 0)" style="fill:#161413; fill-rule:evenodd; stroke:none; stroke-width:0.474429; stroke-linecap:butt; stroke-linejoin:miter; stroke-dasharray:none;">
  <path d="M125 250 C193.825 250 250 193.826 250 125 C250 56.1752 193.825 0 125 0 C56.174 0 0 56.1752 0 125 C0 193.826 56.174 250 125 250 Z"/>
 </g>
 <g transform="translate(5.81265, 5.81318)" style="fill:#ffffff; fill-rule:evenodd; stroke:none; stroke-width:0.474429; stroke-linecap:butt; stroke-linejoin:miter; stroke-dasharray:none;">
  <path d="M119.187 238.374 C184.838 238.374 238.375 184.838 238.375 119.187 C238.375 53.5364 184.838 0 119.187 0 C53.5362 0 0 53.5364 0 119.187 C0 184.838 53.5362 238.374 119.187 238.374 Z"/>
 </g>
 <g transform="translate(22.0887, 156.395)" style="fill:#ff0000; fill-rule:nonzero; stroke:none; stroke-width:0.474429; stroke-linecap:butt; stroke-linejoin:miter; stroke-dasharray:none;">
  <path d="M25.4303 0 C25.4303 0 26.8925 2.73651 26.8925 2.73651 C26.8925 2.73651 29.7765 8.13361 29.7765 8.13361 C31.3341 11.0485 31.8688 13.4339 31.382 15.2894 C30.8948 17.1449 29.304 18.795 26.6088 20.2353 C23.5544 21.8678 21.1595 22.3375 19.4273 21.6468 C17.6938 20.9555 15.8601 18.7978 13.9254 15.177 C13.9254 15.177 13.0899 13.6137 13.0899 13.6137 C13.0899 13.6137 2.91793 19.0493 2.91793 19.0493 C2.91793 19.0493 1.46361 16.3289 1.46361 16.3289 C1.46361 16.3289 0 13.5891 0 13.5891 C0 13.5891 25.4303 0 25.4303 0 Z M16.9039 11.5751 C16.9039 11.5751 17.7474 13.1526 17.7474 13.1526 C18.5421 14.6404 19.3306 15.4977 20.1124 15.7226 C20.8938 15.9484 22.0633 15.6452 23.6194 14.8136 C25.0664 14.0398 25.9142 13.2517 26.1642 12.4509 C26.4128 11.6501 26.1509 10.5252 25.3762 9.0763 C25.3762 9.0763 24.5331 7.49787 24.5331 7.49787 C24.5331 7.49787 16.9039 11.5751 16.9039 11.5751 Z"/>
 </g>
 <g transform="translate(41.0696, 178.927)" style="fill:#ff0000; fill-rule:nonzero; stroke:none; stroke-width:0.474429; stroke-linecap:butt; stroke-linejoin:miter; stroke-dasharray:none;">
  <path d="M0.059778 17.8295 C0.119556 15.7852 1.43088 13.5136 3.99184 11.011 C3.99184 11.011 12.4817 2.71658 12.4817 2.71658 C14.3999 0.842111 16.3853 0 18.4382 0.190246 C20.4901 0.381441 22.6189 1.60404 24.8245 3.86233 C27.0296 6.11871 28.2057 8.27831 28.3542 10.3392 C28.5008 12.4011 27.616 14.3695 25.697 16.2435 C25.697 16.2435 17.208 24.5379 17.208 24.5379 C14.6461 27.0405 12.3432 28.2973 10.2984 28.3096 C8.25364 28.3215 6.01908 27.0866 3.5938 24.6044 C1.17801 22.1312 0 19.8738 0.059778 17.8295 Z M9.29501 22.6122 C10.1741 22.4201 11.3113 21.6439 12.7038 20.2828 C12.7038 20.2828 21.1989 11.9845 21.1989 11.9845 C22.1236 11.0803 22.6307 10.1941 22.7199 9.32917 C22.8086 8.46476 22.4784 7.64922 21.7312 6.88444 C20.983 6.11871 20.1775 5.7719 19.3164 5.84591 C18.4543 5.91945 17.5605 6.40953 16.6354 7.31332 C16.6354 7.31332 8.1412 15.612 8.1412 15.612 C6.74828 16.9732 5.94507 18.0914 5.73252 18.9653 C5.51998 19.8401 5.8388 20.7126 6.68802 21.5818 C7.54627 22.4604 8.41589 22.8044 9.29501 22.6122 Z"/>
 </g>
 <g transform="translate(63.0347, 193.43)" style="fill:#ff0000; fill-rule:nonzero; stroke:none; stroke-width:0.474429; stroke-linecap:butt; stroke-linejoin:miter; stroke-dasharray:none;">
  <path d="M4.462 27.7308 C4.462 27.7308 2.24025 26.5135 2.24025 26.5135 C2.24025 26.5135 0 25.2856 0 25.2856 C0 25.2856 13.8562 0 13.8562 0 C13.8562 0 17.8528 2.18949 17.8528 2.18949 C17.8528 2.18949 21.8683 4.39036 21.8683 4.39036 C21.8683 4.39036 14.8055 28.2674 14.8055 28.2674 C14.8055 28.2674 26.4992 6.92808 26.4992 6.92808 C26.4992 6.92808 28.721 8.14547 28.721 8.14547 C28.721 8.14547 30.9617 9.37329 30.9617 9.37329 C30.9617 9.37329 17.1055 34.6594 17.1055 34.6594 C17.1055 34.6594 13.1274 32.4794 13.1274 32.4794 C13.1274 32.4794 9.13181 30.2899 9.13181 30.2899 C9.13181 30.2899 16.2539 6.21265 16.2539 6.21265 C16.2539 6.21265 4.462 27.7308 4.462 27.7308 Z"/>
 </g>
 <g transform="translate(93.8175, 204.726)" style="fill:#ff0000; fill-rule:nonzero; stroke:none; stroke-width:0.474429; stroke-linecap:butt; stroke-linejoin:miter; stroke-dasharray:none;">
  <path d="M4.99052 29.2723 C4.99052 29.2723 2.50546 28.7784 2.50546 28.7784 C2.50546 28.7784 0 28.2807 0 28.2807 C0 28.2807 5.61866 0 5.61866 0 C5.61866 0 10.0883 0.888131 10.0883 0.888131 C10.0883 0.888131 14.5801 1.78053 14.5801 1.78053 C14.5801 1.78053 15.0166 26.6762 15.0166 26.6762 C15.0166 26.6762 19.759 2.80957 19.759 2.80957 C19.759 2.80957 22.2441 3.30345 22.2441 3.30345 C22.2441 3.30345 24.7505 3.80112 24.7505 3.80112 C24.7505 3.80112 19.1313 32.0818 19.1313 32.0818 C19.1313 32.0818 14.6821 31.198 14.6821 31.198 C14.6821 31.198 10.2126 30.3098 10.2126 30.3098 C10.2126 30.3098 9.77181 5.20496 9.77181 5.20496 C9.77181 5.20496 4.99052 29.2723 4.99052 29.2723 Z"/>
 </g>
 <g transform="translate(124.648, 208.033)" style="fill:#ff0000; fill-rule:nonzero; stroke:none; stroke-width:0.474429; stroke-linecap:butt; stroke-linejoin:miter; stroke-dasharray:none;">
  <path d="M0 0.192618 C0 0.192618 3.08284 0.0967835 3.08284 0.0967835 C3.08284 0.0967835 6.18703 0 6.18703 0 C6.18703 0 7.08559 28.8192 7.08559 28.8192 C7.08559 28.8192 4.00228 28.9155 4.00228 28.9155 C4.00228 28.9155 0.898094 29.0118 0.898094 29.0118 C0.898094 29.0118 0 0.192618 0 0.192618 Z"/>
 </g>
 <g transform="translate(138.131, 204.224)" style="fill:#ff0000; fill-rule:nonzero; stroke:none; stroke-width:0.474429; stroke-linecap:butt; stroke-linejoin:miter; stroke-dasharray:none;">
  <path d="M12.7588 9.19301 C12.7588 9.19301 12.5448 8.3656 12.5448 8.3656 C12.1933 6.88776 11.7322 5.90142 11.1619 5.40422 C10.5911 4.90797 9.78842 4.79268 8.75416 5.05931 C7.73366 5.32309 7.03958 5.80226 6.67379 6.49493 C6.30801 7.18712 6.27053 8.09471 6.55993 9.21578 C6.78433 10.0868 7.28296 10.7534 8.05438 11.2155 C8.81157 11.6819 10.0342 12.0557 11.7222 12.3375 C15.0546 12.9106 17.4837 13.6835 19.008 14.6542 C20.5333 15.6248 21.5362 17.0391 22.0168 18.8984 C22.7384 21.6937 22.5112 23.9862 21.336 25.7729 C20.159 27.5605 18.0278 28.8533 14.9436 29.649 C11.5799 30.5181 9.03977 30.5119 7.32281 29.6305 C5.60633 28.749 4.38467 26.9011 3.65737 24.0863 C3.65737 24.0863 3.59143 23.831 3.59143 23.831 C3.59143 23.831 3.37746 23.0022 3.37746 23.0022 C3.37746 23.0022 9.37187 21.4541 9.37187 21.4541 C9.37187 21.4541 9.58489 22.2816 9.58489 22.2816 C9.90323 23.628 10.4185 24.5655 11.1334 25.0954 C11.8479 25.6253 12.7588 25.7468 13.8695 25.4598 C14.9516 25.1803 15.6818 24.6689 16.0589 23.9245 C16.4356 23.1796 16.467 22.1928 16.1491 20.965 C15.9147 20.0555 15.3781 19.3567 14.5408 18.868 C13.7172 18.3775 12.3911 17.9742 10.5617 17.6582 C7.37073 17.1188 5.04697 16.3754 3.58763 15.4294 C2.13066 14.4985 1.16804 13.1222 0.697885 11.3014 C0 8.59997 0.246703 6.3768 1.43942 4.6347 C2.63213 2.89212 4.7756 1.6197 7.87077 0.820762 C11.0471 0 13.452 0.0455452 15.0849 0.955974 C16.6169 1.82276 17.7161 3.57245 18.3808 6.20505 C18.3808 6.20505 18.5383 6.81612 18.5383 6.81612 C18.5383 6.81612 18.7527 7.64447 18.7527 7.64447 C18.7527 7.64447 12.7588 9.19301 12.7588 9.19301 Z"/>
 </g>
 <g transform="translate(158.571, 191.934)" style="fill:#ff0000; fill-rule:nonzero; stroke:none; stroke-width:0.474429; stroke-linecap:butt; stroke-linejoin:miter; stroke-dasharray:none;">
  <path d="M7.82096 10.1694 C7.82096 10.1694 2.18949 13.4752 2.18949 13.4752 C2.18949 13.4752 1.09498 11.6102 1.09498 11.6102 C1.09498 11.6102 0 9.74572 0 9.74572 C0 9.74572 16.6017 0 16.6017 0 C16.6017 0 17.6962 1.86498 17.6962 1.86498 C17.6962 1.86498 18.7912 3.72996 18.7912 3.72996 C18.7912 3.72996 13.1597 7.03531 13.1597 7.03531 C13.1597 7.03531 25.5674 28.1711 25.5674 28.1711 C25.5674 28.1711 22.9068 29.7329 22.9068 29.7329 C22.9068 29.7329 20.2287 31.3047 20.2287 31.3047 C20.2287 31.3047 7.82096 10.1694 7.82096 10.1694 Z"/>
 </g>
 <g transform="translate(178.726, 175.552)" style="fill:#ff0000; fill-rule:nonzero; stroke:none; stroke-width:0.474429; stroke-linecap:butt; stroke-linejoin:miter; stroke-dasharray:none;">
  <path d="M27.8831 14.3102 C29.9441 16.2753 30.9503 18.3096 30.9029 20.4118 C30.8545 22.5154 29.7576 24.6916 27.6127 26.9414 C25.4664 29.1921 23.3447 30.3914 21.2468 30.539 C19.1484 30.6875 17.0695 29.778 15.0081 27.8129 C15.0081 27.8129 0 13.5027 0 13.5027 C0 13.5027 2.13588 11.2625 2.13588 11.2625 C2.13588 11.2625 4.27176 9.02221 4.27176 9.02221 C4.27176 9.02221 19.5408 23.5805 19.5408 23.5805 C20.5746 24.5659 21.4532 25.0878 22.1795 25.1447 C22.9045 25.2021 23.6716 24.8065 24.482 23.9568 C25.2913 23.1085 25.6505 22.3219 25.5589 21.6003 C25.4669 20.8787 24.9042 20.0242 23.8714 19.0388 C23.8714 19.0388 8.60282 4.48003 8.60282 4.48003 C8.60282 4.48003 10.7387 2.23978 10.7387 2.23978 C10.7387 2.23978 12.8746 0 12.8746 0 C12.8746 0 27.8831 14.3102 27.8831 14.3102 Z"/>
 </g>
 <g transform="translate(196.943, 156.333)" style="fill:#ff0000; fill-rule:nonzero; stroke:none; stroke-width:0.474429; stroke-linecap:butt; stroke-linejoin:miter; stroke-dasharray:none;">
  <path d="M11.4385 7.78111 C11.4385 7.78111 10.678 7.39018 10.678 7.39018 C9.34008 6.67094 8.29586 6.36019 7.54532 6.45603 C6.79619 6.55186 6.17564 7.07563 5.6884 8.02544 C5.20638 8.96386 5.10343 9.80028 5.37765 10.5337 C5.65187 11.2672 6.30516 11.8992 7.33514 12.4277 C8.13551 12.8385 8.96433 12.9097 9.82257 12.6393 C10.6746 12.3845 11.7663 11.7193 13.0985 10.6452 C15.742 8.5364 17.9344 7.23551 19.6727 6.74116 C21.411 6.24728 23.1346 6.438 24.8425 7.31522 C27.4116 8.63318 28.9729 10.3269 29.5266 12.393 C30.0797 14.4601 29.6295 16.9105 28.1749 19.7448 C26.5879 22.8362 24.8942 24.7296 23.0947 25.4265 C21.2957 26.123 19.1024 25.8075 16.5163 24.4796 C16.5163 24.4796 16.2819 24.3595 16.2819 24.3595 C16.2819 24.3595 15.5205 23.9681 15.5205 23.9681 C15.5205 23.9681 18.3481 18.461 18.3481 18.461 C18.3481 18.461 19.1076 18.851 19.1076 18.851 C20.326 19.509 21.3683 19.7467 22.2389 19.565 C23.1099 19.3833 23.8064 18.7836 24.3306 17.7621 C24.8406 16.7692 24.9436 15.8834 24.638 15.1068 C24.332 14.3301 23.6156 13.6507 22.4875 13.0724 C21.652 12.6431 20.7729 12.579 19.8515 12.8803 C18.9378 13.1697 17.7546 13.8922 16.3023 15.0494 C13.7793 17.0752 11.679 18.3172 10.0019 18.7779 C8.33856 19.2481 6.67 19.0526 4.99811 18.1939 C2.51495 16.9196 1.01765 15.2576 0.508588 13.2086 C0 11.16 0.474429 8.71194 1.93377 5.86868 C3.43249 2.95047 5.065 1.18275 6.82988 0.568366 C8.49607 0 10.5342 0.341589 12.9429 1.59456 C12.9429 1.59456 13.5041 1.88253 13.5041 1.88253 C13.5041 1.88253 14.2651 2.27346 14.2651 2.27346 C14.2651 2.27346 11.4385 7.78111 11.4385 7.78111 Z"/>
 </g>
 <g transform="translate(79.8039, 143.086)" style="fill:#ff0000; fill-rule:nonzero; stroke:none; stroke-width:0.474429; stroke-linecap:butt; stroke-linejoin:miter; stroke-dasharray:none;">
  <path d="M4.49474 6.99356 C4.49474 6.99356 3.6735 7.90019 3.6735 7.90019 C2.80672 8.78263 1.58222 9.62521 0 10.4308 C0 10.4308 0 5.17317 0 5.17317 C1.23636 4.43733 2.21321 3.71003 2.93102 2.98938 C3.64788 2.26872 4.38088 1.27242 5.1281 0 C5.1281 0 10.6006 0 10.6006 0 C10.6006 0 10.6006 32.5648 10.6006 32.5648 C10.6006 32.5648 7.54816 32.5648 7.54816 32.5648 C7.54816 32.5648 4.49474 32.5648 4.49474 32.5648 C4.49474 32.5648 4.49474 6.99356 4.49474 6.99356 Z"/>
 </g>
 <g transform="translate(102.576, 142.493)" style="fill:#ff0000; fill-rule:nonzero; stroke:none; stroke-width:0.474429; stroke-linecap:butt; stroke-linejoin:miter; stroke-dasharray:none;">
  <path d="M13.0335 16.1111 C14.1522 16.4214 15.0399 16.8958 15.6998 17.532 C16.9362 18.7271 17.5548 20.6747 17.5548 23.3751 C17.5548 23.3751 17.5548 25.3317 17.5548 25.3317 C17.5548 28.2807 16.8645 30.4076 15.4839 31.7113 C14.1033 33.0155 11.8636 33.6674 8.76555 33.6674 C5.668 33.6674 3.43249 33.0155 2.0595 31.7113 C0.686973 30.4076 0 28.2821 0 25.3321 C0 25.3321 0 23.3765 0 23.3765 C0 20.4275 0.672266 18.4169 2.01585 17.3461 C2.69001 16.8033 3.67872 16.4001 4.9815 16.1353 C3.95436 15.825 3.09565 15.437 2.40678 14.9706 C0.859191 13.8695 0.0853972 12.0685 0.0853972 9.5697 C0.0853972 9.5697 0.0853972 7.75312 0.0853972 7.75312 C0.0853972 5.00617 0.76383 3.0278 2.12354 1.81659 C3.48136 0.605371 5.69552 0 8.76555 0 C11.8361 0 14.0545 0.621502 15.4204 1.86308 C16.7862 3.10466 17.4704 5.12288 17.4704 7.91585 C17.4704 7.91585 17.4704 9.4065 17.4704 9.4065 C17.4704 11.9518 16.7877 13.7912 15.4242 14.9241 C14.8107 15.437 14.0146 15.8331 13.0335 16.1111 Z M8.76555 18.4021 C7.68053 18.4021 6.95181 18.6835 6.57938 19.2428 C6.20743 19.8017 6.02145 20.8896 6.02145 22.505 C6.02145 22.505 6.02145 24.463 6.02145 24.463 C6.02145 26.5305 6.17659 27.8328 6.48639 28.368 C6.79714 28.9051 7.55623 29.1726 8.76555 29.1726 C9.99005 29.1726 10.7586 28.9051 11.0689 28.368 C11.3792 27.8328 11.5338 26.5305 11.5338 24.463 C11.5338 24.463 11.5338 22.505 11.5338 22.505 C11.5338 20.7027 11.3792 19.5683 11.0689 19.1024 C10.7586 18.6356 9.99005 18.4021 8.76555 18.4021 Z M8.76555 13.9079 C9.85531 13.9079 10.5745 13.591 10.9242 12.9552 C11.2743 12.319 11.4489 11.0006 11.4489 8.99992 C11.4489 8.99992 11.4489 8.67398 11.4489 8.67398 C11.4489 6.90626 11.2743 5.74011 10.9242 5.17412 C10.5745 4.6086 9.85531 4.32489 8.76555 4.32489 C7.72465 4.32489 7.0206 4.61287 6.65529 5.18646 C6.28903 5.76004 6.10685 6.86878 6.10685 8.51173 C6.10685 8.51173 6.10685 9.16264 6.10685 9.16264 C6.10685 11.0869 6.27764 12.3574 6.61923 12.9775 C6.96082 13.5976 7.67673 13.9079 8.76555 13.9079 Z"/>
 </g>
 <g transform="translate(127.979, 142.493)" style="fill:#ff0000; fill-rule:nonzero; stroke:none; stroke-width:0.474429; stroke-linecap:butt; stroke-linejoin:miter; stroke-dasharray:none;">
  <path d="M13.0335 16.1111 C14.1522 16.4214 15.0399 16.8958 15.6993 17.532 C16.9357 18.7271 17.5543 20.6747 17.5543 23.3751 C17.5543 23.3751 17.5543 25.3317 17.5543 25.3317 C17.5543 28.2807 16.864 30.4076 15.4835 31.7113 C14.1024 33.0155 11.8631 33.6674 8.76555 33.6674 C5.66753 33.6674 3.43202 33.0155 2.05902 31.7113 C0.686499 30.4076 0 28.2821 0 25.3321 C0 25.3321 0 23.3765 0 23.3765 C0 20.4275 0.671791 18.4169 2.01585 17.3461 C2.69001 16.8033 3.67825 16.4001 4.98103 16.1353 C3.95389 15.825 3.09565 15.437 2.4063 14.9706 C0.858716 13.8695 0.0844483 12.0685 0.0844483 9.5697 C0.0844483 9.5697 0.0844483 7.75312 0.0844483 7.75312 C0.0844483 5.00617 0.763356 3.0278 2.12259 1.81659 C3.48088 0.605371 5.69504 0 8.76555 0 C11.8356 0 14.054 0.621502 15.4194 1.86308 C16.7858 3.10466 17.4699 5.12288 17.4699 7.91585 C17.4699 7.91585 17.4699 9.4065 17.4699 9.4065 C17.4699 11.9518 16.7872 13.7912 15.4237 14.9241 C14.8102 15.437 14.0142 15.8331 13.0335 16.1111 Z M8.76555 18.4021 C7.68005 18.4021 6.95133 18.6835 6.57938 19.2428 C6.20648 19.8017 6.02098 20.8896 6.02098 22.505 C6.02098 22.505 6.02098 24.463 6.02098 24.463 C6.02098 26.5305 6.17611 27.8328 6.48592 28.368 C6.79619 28.9051 7.55528 29.1726 8.76555 29.1726 C9.98957 29.1726 10.7581 28.9051 11.0684 28.368 C11.3782 27.8328 11.5334 26.5305 11.5334 24.463 C11.5334 24.463 11.5334 22.505 11.5334 22.505 C11.5334 20.7027 11.3782 19.5683 11.0684 19.1024 C10.7581 18.6356 9.98957 18.4021 8.76555 18.4021 Z M8.76555 13.9079 C9.85436 13.9079 10.5745 13.591 10.9237 12.9552 C11.2734 12.319 11.4484 11.0006 11.4484 8.99992 C11.4484 8.99992 11.4484 8.67398 11.4484 8.67398 C11.4484 6.90626 11.2734 5.74011 10.9237 5.17412 C10.5745 4.6086 9.85436 4.32489 8.76555 4.32489 C7.7237 4.32489 7.02012 4.61287 6.65434 5.18646 C6.28855 5.76004 6.1059 6.86878 6.1059 8.51173 C6.1059 8.51173 6.1059 9.16264 6.1059 9.16264 C6.1059 11.0869 6.27669 12.3574 6.61876 12.9775 C6.96035 13.5976 7.67578 13.9079 8.76555 13.9079 Z"/>
 </g>
 <g transform="translate(153.296, 142.832)" style="fill:#ff0000; fill-rule:nonzero; stroke:none; stroke-width:0.474429; stroke-linecap:butt; stroke-linejoin:miter; stroke-dasharray:none;">
  <path d="M2.56666 32.8191 C2.56666 32.8191 11.4114 4.97534 11.4114 4.97534 C11.4114 4.97534 11.5267 4.57919 11.5267 4.57919 C11.5267 4.57919 0 4.57919 0 4.57919 C0 4.57919 0 0 0 0 C0 0 17.1302 0 17.1302 0 C17.1302 0 17.1302 2.51258 17.1302 2.51258 C17.1302 2.51258 17.1302 5.02468 17.1302 5.02468 C17.1302 5.02468 9.07393 32.8191 9.07393 32.8191 C9.07393 32.8191 2.56666 32.8191 2.56666 32.8191 Z"/>
 </g>
 <g transform="translate(18.2118, 18.4951)" style="fill:#161413; fill-rule:evenodd; stroke:none; stroke-width:0.474429; stroke-linecap:butt; stroke-linejoin:miter; stroke-dasharray:none;">
  <path d="M0.394725 97.5269 C0.133884 100.561 0 103.631 0 106.731 C0 110.11 0.158886 113.454 0.468878 116.756 C0.468878 116.756 212.994 116.754 212.994 116.754 C213.202 114.537 213.342 112.3 213.412 110.046 C213.412 110.046 204.94 101.47 191.371 97.3998 C177.803 93.3287 166.516 92.9563 152.248 93.7813 C139.527 94.5162 132.252 95.0997 131.726 93.8378 C130.877 91.8025 132.499 84.5831 137.831 79.9299 C147.16 71.7887 158.015 68.5659 175.315 66.5311 C192.349 64.5266 205.385 66.0656 205.385 66.0656 C199.482 51.8295 190.578 39.128 179.472 28.7589 C179.472 28.7589 166.07 29.8719 153.266 37.1886 C140.206 44.6513 135.287 50.2487 125.958 58.8984 C121.993 62.5762 120.354 64.6476 118.835 64.4958 C117.139 64.3259 113.008 59.8748 112.22 52.7925 C111.542 46.6866 113.238 37.1886 120.531 24.6376 C128.046 11.7046 135.574 3.97382 135.574 3.97382 C126.393 1.38533 116.718 0 106.731 0 C99.6356 0 92.6976 0.699308 85.9825 2.03245 C85.9825 2.03245 82.1999 11.2383 82.0305 25.4854 C81.8583 39.9023 84.7438 48.3827 86.1011 56.0153 C87.16 61.9756 88.1359 64.4958 86.9489 66.022 C86.1353 67.0676 78.9771 67.7181 72.0234 62.7997 C61.9977 55.7089 56.2496 44.3121 51.6699 34.1356 C47.6207 25.1367 46.3971 18.7817 46.3971 18.7817 C33.3612 27.7626 22.4024 39.5607 14.414 53.2826 C14.414 53.2826 19.9083 62.524 33.3522 71.9585 C43.0201 78.7424 54.5535 83.322 63.8822 86.8836 C72.1002 90.0215 77.7901 91.2934 78.9771 93.8378 C80.036 96.107 68.644 103.923 59.4724 105.371 C43.3593 107.915 36.2358 106.898 12.1512 101.131 C3.69903 99.1072 0.394725 97.5269 0.394725 97.5269 Z"/>
 </g>
 <g transform="translate(86.9118, 72.0311)" style="fill:#ffffff; fill-rule:nonzero; stroke:none; stroke-width:0.474429; stroke-linecap:butt; stroke-linejoin:miter; stroke-dasharray:none;">
  <path d="M34.1916 0 C34.1916 0 42.3641 21.8166 42.3641 21.8166 C42.3641 21.8166 68.3842 21.9381 68.3842 21.9381 C68.3842 21.9381 47.4154 35.5437 47.4154 35.5437 C47.4154 35.5437 55.3241 57.4353 55.3241 57.4353 C55.3241 57.4353 34.1916 44.0279 34.1916 44.0279 C34.1916 44.0279 13.0596 57.4353 13.0596 57.4353 C13.0596 57.4353 20.9683 35.5437 20.9683 35.5437 C20.9683 35.5437 0 21.9381 0 21.9381 C0 21.9381 26.0196 21.8166 26.0196 21.8166 C26.0196 21.8166 34.1916 0 34.1916 0 Z"/>
 </g>
</svg>